/* XPM */
static char *Wall_3[] = {
/* columns rows colors chars-per-pixel */
"64 64 159 2 ",
"   c #671E0C",
".  c #681E0C",
"X  c #6B220F",
"o  c #762D0F",
"O  c #6D2413",
"+  c #6F2817",
"@  c #712714",
"#  c #732914",
"$  c #792F16",
"%  c #712C1C",
"&  c #7C3216",
"*  c #7D331B",
"=  c #7D3420",
"-  c #813617",
";  c #833917",
":  c #823719",
">  c #843A1C",
",  c #893D1E",
"<  c #843C24",
"1  c #8E421D",
"2  c #91471C",
"3  c #984C1F",
"4  c #97501F",
"5  c #9A511D",
"6  c #924522",
"7  c #964D21",
"8  c #994D24",
"9  c #9D5223",
"0  c #9B5129",
"q  c #934C30",
"w  c #9B5535",
"e  c #A45625",
"r  c #A85727",
"t  c #A55826",
"y  c #AB5D27",
"u  c #A45629",
"i  c #A85729",
"p  c #A65828",
"a  c #A95B28",
"s  c #AE6225",
"d  c #B46D27",
"f  c #B56E29",
"g  c #B6722A",
"h  c #BA732C",
"j  c #A96333",
"k  c #B97730",
"l  c #BA7D36",
"z  c #C57D2A",
"x  c #C67D31",
"c  c #B67045",
"v  c #B77D43",
"b  c #B6704A",
"n  c #B9744C",
"m  c #BD7B4C",
"M  c #A77C72",
"N  c #C27843",
"B  c #C27C4D",
"V  c #C07C50",
"C  c #CD862E",
"Z  c #CE882E",
"A  c #D0862F",
"S  c #CD8531",
"D  c #CE8932",
"F  c #CE8D39",
"G  c #D08732",
"H  c #D18B35",
"J  c #D38E39",
"K  c #D39236",
"L  c #D3933B",
"P  c #D6983F",
"I  c #BC854C",
"U  c #BB8F70",
"Y  c #CE874E",
"T  c #D58F47",
"R  c #D69047",
"E  c #DA9445",
"W  c #D69841",
"Q  c #DA9C45",
"!  c #DB9549",
"~  c #D79E4E",
"^  c #DC9849",
"/  c #CF8852",
"(  c #D08952",
")  c #CF9E55",
"_  c #DF9A52",
"`  c #D09F58",
"'  c #E19C54",
"]  c #E49F5B",
"[  c #DCA146",
"{  c #DDA34D",
"}  c #D4A45C",
"|  c #E0A54E",
" . c #E0A94F",
".. c #E1A750",
"X. c #E3AD55",
"o. c #E4A05B",
"O. c #E1AF58",
"+. c #D89463",
"@. c #E29F69",
"#. c #D4A560",
"$. c #DBA77B",
"%. c #E9A767",
"&. c #EAA867",
"*. c #E5A26C",
"=. c #ECA76B",
"-. c #EFAB69",
";. c #F0AD6C",
":. c #EDBD64",
">. c #E5B769",
",. c #EFAE71",
"<. c #F1AF73",
"1. c #F2B174",
"2. c #F3B875",
"3. c #F2B078",
"4. c #EEC065",
"5. c #F1C26A",
"6. c #F3C96E",
"7. c #F5CD74",
"8. c #F8CE76",
"9. c #F6CE79",
"0. c #F8CE79",
"q. c #F6D075",
"w. c #F9D177",
"e. c #F6D17A",
"r. c #F9D17A",
"t. c #BB9C94",
"y. c #D2B59C",
"u. c #E9BC82",
"i. c #D1BFB8",
"p. c #F1C984",
"a. c #F4D283",
"s. c #F8D084",
"d. c #F4D48D",
"f. c #F4D88B",
"g. c #F5D691",
"h. c #F5DC9E",
"j. c #D2C1BB",
"k. c #F3CAA5",
"l. c #F6D5A6",
"z. c #F5DDA3",
"x. c #F4D8BD",
"c. c #F7E2AE",
"v. c #F4E3B2",
"b. c #F8E3B3",
"n. c #F5E5BD",
"m. c #F7E8C5",
"M. c #F6E7C8",
"N. c #F6E9CC",
"B. c #F4EFD1",
"V. c #F8EED6",
"C. c #F5EFD9",
"Z. c #F6F1E0",
"A. c #F5F5EC",
"S. c #F8F5EB",
"D. c #F5F7F6",
"F. c #F5F9F5",
"G. c #F5F7FA",
"H. c #F5F9FA",
"J. c #F8FAFC",
/* pixels */
"  .     . . . . . . . . . .           X                 X     . X               X     X     X     X     X                       ",
"O O @ O O O X O O O + O O O O O @ O O O O O O O O + + O O O O O O O + O O + + X O O O O O O O O O O O O O O O O O O + O O O + O ",
"O O O O O O O O O O O O O O O O X O O X O X X O O X X X O X O O O X O X X O X X X O O O X X O O O X X X O O O O O O O O O X O O ",
"O O O O % % % % % # # # # @ @ # @ @ # @ # # # @ @ @ # # @ @ @ # # @ @ @ # @ # # @ @ @ # # # @ @ # @ # + # + # # + @ @ @ + O O O ",
"O O O O M j.i.i.y.} #.#.` k d f f f f f f f f f f f f f f f f f f f f f f f f f f f f f f f d d f d d l } } } ) h f f f 2 X O + ",
"O O O X t.J.J.F.N.e.w.0.7.K G C C C C C Z C Z C Z C Z C C Z C Z Z Z C Z C C C Z A Z Z C C C C C A C A W 8.8.e.7.L C Z Z 5 X O O ",
"O O O O t.H.H.F.m.8.8.8.7.K C S C C C C C C C C C Z C Z C C C C C C C C C Z C Z C C C C C C C C A C C P 7.8.8.6.K C Z C 5 X O + ",
"@ O O O t.H.H.H.M.q.8.8.6.H C C C C C C Z S C S C C C C C Z C Z S C Z C C C C C C C C C A A G C C C C L 7.8.9.6.J S C Z 9 O O X ",
"O X O X U v.c.v.b.n.n.n.v.>.X.X.O.L C C C C C C Z C C C C C C C Z C C C C Z C C C C Z C A C C P X.X.X...{ { { ~ t 4 7 4 * O O O ",
"O O O O I q.7.7.z.D.F.G.A.f.8.w.q.Q C C C S C C C C C Z C C Z C C C Z C C C C C S C C C C C C [ r.w.r.:.Z C C z $ X X X O O + O ",
"O O O O I w.q.7.z.F.D.G.S.f.9.7.e.Q C C C C C C C C C C C C C C C Z C C C C C C S C C C C C C  .q.w.e.:.S C C z & O O O O O X + ",
"O O O O I r.e.9.z.H.G.G.S.a.q.q.9.Q z S C C C C C C C C C Z Z C C C C C Z C C C C C C C C C C | e.q.q.:.Z Z S z & O O O O X + X ",
"O O O O v 4.4.:.g.C.C.C.C.h.g.g.g.X.L L L F C C C Z C C C C Z C C C C C C C C C C C Z L L L L  .5.5.5.X.h h g d & O O O O O O + ",
"+ O O O s D D D { a.e.e.d.V.A.A.S.h.7.6.8.{ C C C C C C C C C C C C C C C C C C C C D :.6.7.8.X.S S D g o # # # O O O @ O O O @ ",
"O O O X s C C C Q 8.q.q.a.Z.H.G.F.h.8.e.w.X.C C C C C C C C C Z Z C C C C C C C C C S 4.e.q.w.X.C C C f O O O O O O O O O O O O ",
"O O O X 9 C C C [ 8.8.0.s.Z.D.F.G.z.8.q.q.X.C C C C C C C C C S C C C C C C C C C C D 4.q.e.r.O.C S Z f O O O O O O O O O O X + ",
"O O O   u D C C Q 6.6.7.9.B.A.A.S.c.e.a.a.O.D D S S H S S D S S H F S S S S H S H G F :.9.9.w.{ z C C s O O + O O O O O O O O O ",
"O O O O t S C C Z K L K L p.g.g.f.n.Z.Z.Z.l.%.%.%.%.&.&.&.&.%.&.%.&.&.&.&.&.&.&.%.&.&.1.1.2.2.m & * & $ + O O O O O O O + O + O ",
"O O O O t C C C C C C C D 4.q.q.7.N.H.G.H.x.,.3.<.<.<.<.1.,.1.1.<.<.1.,.1.1.<.<.<.<.<.<.,.<.1.c X O X O O O O O O O O O O O O O ",
"O O O O 9 S C C C C C C D 6.8.8.q.N.D.F.H.x.,.,.<.<.<.<.1.1.;.<.1.;.<.1.-.1.<.<.<.<.<.<.1.,.1.c X O O O + O O O O O O O O O @ O ",
"O O O O s Z Z Z C C C C F 5.9.9.9.m.G.D.G.x.,.<.<.<.,.<.<.,.<.<.,.,.<.,.<.<.<.,.,.<.,.<.1.<.1.c O O O O O O O O O O O O O O @ O ",
"O O O O 9 Z Z Z C C C C S W [ [ Q u.k.k.k.$.N N N N N N N N N N N N N N N N N N N N N T E W ^ j O O O O O O O O @ O O O O O O O ",
"O O O X 9 S Z C C Z C C C C C C C ] <.;.<.Y e e e e e e e e e e e e e e e e e e e e p z Z C Z 5 O O O O O O O O O O O + O O O O ",
"O O X X s C C C C C C C C C Z C C ] 1.<.1.( e p p p p p p p p p p p p p p p p p e p p z Z Z D t O O O O O O O O O O O O O O O @ ",
"O O O O s C C C C C C C C C C C C o.<.<.1./ t t p e p p e a i p p p p p p t t t p e t z C C Z t O O O O O + O O O O O @ O O O O ",
"O O O X 5 Z C Z C C C C C C C C C o.<.,.1./ e t p t p p i e e p p p p p e t r t p p y z C C Z 5 O O O O O O O O O O O O O O + O ",
"O O O X t Z C C C C Z C C C C S C ] 1.<.1./ e p p p p e t a t t p p p e e p a e p e y z C C H t O O O O O O O O O O + O O O @ O ",
"O O O O 9 D C C C D C C Z C C S C ] <.<.1./ e p e p p p a t t t e p p p p p p i a t t z C C A e O O O O O O O O O O O O O O O O ",
"O O O O 0 D D C D C C C C C C C C o.<.<.1.( e p p p e p p p t t a t t t p p e p i p p z C C A e O O O O O O @ O O O O O O @ O O ",
"O O O O 9 S C C C C C C C Z C S C o.1.<.1.( e p p p p p p e e p r t t t p p p p p p t z C C A e O O O O O O O O O O O O O O O O ",
"O O O   s Z Z C C D C C C S Z S C o.,.<.1.( e p p p p e p p p p i e e t p p p p i e t z C A G r O O O O O O O O O O @ O O O @ O ",
"+ O O O 9 Z C C C C C C C C C C C o.1.;.1./ e p e p p p p e e p p p p p e p e p a t a z C C x u O O O O + O O O + O O O O O O O ",
"O + + X 5 Z C C C C Z C C C C S C o.<.<.1./ e p p e p e p p p p p p p p p p p p i p p z Z C C e X O O O O O O O O + O O O O + O ",
"O X O + s C C C S C C C C A C S C o.<.<.1./ e p p p p p p p e p e p p p e p e p p i t z C A C e X + O O O O O O O O O O O O O @ ",
"O O X X t Z C C C C C C C A C C C o.<.<.1./ e p e t p p p e p p t e i e i e t t a e t z C A A e O + O O O O O O O @ O O O O O O ",
"O X X X t C C C S C C C C C C G C o.1.1.1./ e p t t e p p p e p t a p p p a t t a t t z C C A t O O O O O @ O O O O O O O O @ O ",
"O O O O t Z Z Z C C Z C C C C C C o.,.-.1.( i p t t a r i e p p p p p p e a i e t t y z C C Z e O O O O O O O O O O O O O O O O ",
"O O O O e Z C C C C C C C A Z S C o.1.1.1.( e p t t e a a e i p p p e p a e i p t t a z C C Z e O O O O O O + O O O O O O O O @ ",
"O O O X e C C C C C C C C C C C C o.1.,.1.( e p p p i p a r t t p e p p p p p p t t e z C C Z e X O O O O O O O O O O O O O O O ",
"O O O O t S C C S Z S C C A C S C o.<.<.1.( e e p p p e t i t t p p e p p p e p t e t C C Z C t X O O O O O O O O + @ O O O + O ",
"O O O O 0 D Z Z S C C C C C C C C o.1.<.<.( t t p e t t t t t t p e p e t t p t t e e z C A A e O O O O O O O O O O O O O O O @ ",
"O O O O 9 D C C C C Z C C C C G C o.,.,.1.( e t r e e e t t t e e e e t t t t t e t a x A A Z e O O O @ O O O O O O O O O O O @ ",
"O O O X 9 C Z C S C Z C C C C S C o.,.,.3.( s s y y s y s y y t y y s s a y y y y y s z z z C 9 O O O O O O + O O O O O O O O O ",
"O O O O s S C C C C C C Z C C S C o.1.,.3.' z C C C x z C z C C C z C C C z C C S C x s y t t 1 O O O O O O O O O O O + @ O O O ",
"X + + X 9 Z C Z C C C C C C C C C o.1.1.1.' S C C C C C A A x G C C C C C C C C S C C s u e p , O O O O O O O O O O O + O O O @ ",
"+ X + X t Z C C S C C S C C C S C o.1.,.<.' C C C C C C A A A G C C C Z C C C Z C C S s i i e 1 O O O O O O O O O O O O O O O O ",
"O X X X 9 Z C C C C C C C C C C C o.1.1.<._ S S G G G x A A x H S S S S S S S S C C S s p e u 1 O - O O O O O + O O O O O O O O ",
"O O + X t C C C C C Z S S _ o.@._ k w w w 0 2 2 2 2 2 2 2 2 , , 1 1 2 2 2 2 1 2 1 2 1 ; : : * 1 , , , < O O O O O O O O O O O @ ",
"O O O O t Z Z C C C C C S &.,.1.<.w   O X X O O   O O O O O O O O O O O O O O O O X O O O O O > r r r 8 O O O O O O O O O O O @ ",
"O O O O 9 D C C Z C C C S &.<.1.<.w . O O O O O O O O O O O O O O O O O O O O O O O O O O O O > r r r 3 O O O O O O O @ O O O O ",
"O O O O s C C C C C C C S ;.1.3.3.w X O O O O O O O O O O O + O O O O O O O O O O O O O O O O > r r r 8 @ O X O O O O O O O O O ",
"O O O X 9 C C C D ~ ! ! ! N n n n < O O O O O O O O O O O O O O O O O O O O O O O O O O O O O % 6 2 , , > : : : @ O O O O O O @ ",
"O O O X 0 D C C E <.3.3.*.< X O O O O O O O O O O O O O O O O O O O O O O O O + O O O O O + O O O O O $ r r i u @ O O O O O @ O ",
"O O O O 9 Z C C E ;.1.1.*.< O O O O O O + O O O O O O O O O O + O O O O O + O O O O O O O O O + O O . : u r e e # @ O O O O O @ ",
"O O O O s Z C C ! <.2.3.*.= O O O O O + O O O O O O O O O O O O O O O O O O O O O O O O O O O O O O O $ u r i 9 # @ O O O O O O ",
"O O O O t F D D R @.+.%.+.* X O @ O O O O O O O O O O O + O O O O O O O O O O O O O O O O O O O O @ O $ 8 9 e 8 $ @ # @ O O O @ ",
"O O O X c -.=.-.B < * * = O O O O O O O O O O O O O O O O O O O O O O O O O O O O O O O O O O O O O O O # # # $ 3 e e 9 > X O @ ",
"O O O X n 3.3.1.V . O O X O O O O O O O O O O O O O O O O O O O O O O + O O + O O O O + O O + O O O O O O O O + 8 r t t , O O O ",
"O O O O n 1.,.,.V O O O O O O O O + O O O O O O O O O O O O O O O O O O O O O O O O O O O O O O O O O O O O O O 9 p e t , O O O ",
"O O O O b 1.,.3.B O O O + O O O O O O O O + O O O O O O O O + O O O O O O O O O O O O + O O O O O O O O O O O + 9 e e e > X @ O ",
"O O O O = q q q < O O O O O O O O O O O O O O O O + O O O O O O O O O O O O O O O O O O O O O O O O + O O O O + $ * & * # O O O ",
"O O O O O X O X O O O + O O O + O O O O O O O O O O O O O O O O O O O O O O O O O O O O O O O O O O O O O O O O O O X O O O O @ ",
"O O O O O O O O O O O O O O O O O O O O O O O O O + O O + O O O O O O O O O + O O O O O O O O O O O O O O O O O O O O O O O O O ",
"X X X O X X O   O X   O   X O X O   O   O O O   O   O O   O   O . O O . O O . O X X X X X X X X X X O O X X X X X X X X X O . X "
};
