/* XPM */
static char *Wall_1[] = {
/* columns rows colors chars-per-pixel */
"64 64 184 2 ",
"   c #040609",
".  c #040B0D",
"X  c #0A0B0B",
"o  c #060706",
"O  c #130F0F",
"+  c #140F07",
"@  c #07100C",
"#  c #0C100E",
"$  c #13120E",
"%  c #18120B",
"&  c #060B12",
"*  c #0B0E11",
"=  c #120F12",
"-  c #150F18",
";  c #071111",
":  c #0C1110",
">  c #141212",
",  c #1B1412",
"<  c #1F1918",
"1  c #131319",
"2  c #230F0A",
"3  c #23140E",
"4  c #33170F",
"5  c #3B170F",
"6  c #3E180F",
"7  c #221412",
"8  c #2E1512",
"9  c #231A14",
"0  c #2E1E12",
"q  c #281D19",
"w  c #341513",
"e  c #3D1611",
"r  c #321B12",
"t  c #3C1A13",
"y  c #361F19",
"u  c #2C2316",
"i  c #27231B",
"p  c #2A241C",
"a  c #332114",
"s  c #3E2D17",
"d  c #372418",
"f  c #3F2D19",
"g  c #3A2418",
"h  c #41190E",
"j  c #561D0F",
"k  c #5D1D0E",
"l  c #401410",
"z  c #451B11",
"x  c #491E12",
"c  c #561C10",
"v  c #5E1C11",
"b  c #621C0E",
"n  c #691F0D",
"m  c #631D11",
"M  c #681F11",
"N  c #452618",
"B  c #402D1A",
"V  c #4A2B18",
"C  c #5D2110",
"Z  c #522F19",
"A  c #502915",
"S  c #51301B",
"D  c #69200F",
"F  c #612312",
"G  c #6D2413",
"H  c #712514",
"J  c #762C13",
"K  c #782C17",
"L  c #722518",
"P  c #782C18",
"I  c #64391D",
"U  c #63371B",
"Y  c #7F3416",
"T  c #7E331A",
"R  c #4D2C21",
"E  c #473F2A",
"W  c #493F2A",
"Q  c #463624",
"!  c #653821",
"~  c #683B20",
"^  c #633722",
"/  c #62431F",
"(  c #49412D",
")  c #624321",
"_  c #765E3D",
"`  c #73623E",
"'  c #766540",
"]  c #803617",
"[  c #833817",
"{  c #823719",
"}  c #833819",
"|  c #8A3E1B",
" . c #8D421D",
".. c #8E4517",
"X. c #92451D",
"o. c #924A1E",
"O. c #9E4F1D",
"+. c #A2581E",
"@. c #8E4120",
"#. c #914720",
"$. c #964B22",
"%. c #994D22",
"&. c #9E5425",
"*. c #9D5428",
"=. c #905126",
"-. c #A04E23",
";. c #A35624",
":. c #A65826",
">. c #A95B26",
",. c #A45728",
"<. c #A65929",
"1. c #AA5B29",
"2. c #A95426",
"3. c #B05E27",
"4. c #B05D2A",
"5. c #AD612B",
"6. c #AA6225",
"7. c #B16226",
"8. c #B26B25",
"9. c #B3622B",
"0. c #B8642F",
"q. c #B66E29",
"w. c #BB6C29",
"e. c #BE762C",
"r. c #B46F37",
"t. c #C47D2B",
"y. c #CB7E29",
"u. c #C37A27",
"i. c #C27A31",
"p. c #BD7B42",
"a. c #C68027",
"s. c #C98227",
"d. c #C7822E",
"f. c #CC852D",
"g. c #CE882E",
"h. c #D0862D",
"j. c #D18A2F",
"k. c #D98D2F",
"l. c #C58031",
"z. c #CD8530",
"x. c #CE8B31",
"c. c #C78239",
"v. c #CA8438",
"b. c #D08731",
"n. c #D48B31",
"m. c #DA8E31",
"M. c #CD913C",
"N. c #DB9135",
"B. c #D3933B",
"V. c #D3993E",
"C. c #BE8440",
"Z. c #C48343",
"A. c #C78C47",
"S. c #CA8848",
"D. c #D59A43",
"F. c #D99F48",
"G. c #DBA149",
"H. c #DFAC5A",
"J. c #E2A84C",
"K. c #E5AF58",
"L. c #E9B35A",
"P. c #EDB85F",
"I. c #E1AE62",
"U. c #EEBC63",
"Y. c #E5B663",
"T. c #EFBF71",
"R. c #DCC476",
"E. c #EEC26A",
"W. c #F3C56D",
"Q. c #F3C86E",
"!. c #EEC572",
"~. c #E7C877",
"^. c #EDCA74",
"/. c #F5CC75",
"(. c #FACE76",
"). c #F8CD78",
"_. c #F4C673",
"`. c #F6D077",
"'. c #FAD377",
"]. c #F4D37A",
"[. c #FBD47B",
"{. c #FEDA7D",
"}. c #FEDD81",
"|. c #FFE786",
/* pixels */
"f.f.f.b.f.z.f.f.f.z.f.g.z.>.,.:.<.,.:.:.,.>.:.:.,.:.:.,.,.:.,.:.:.,.:.<.;.4.I . 1 o ( ].`.`./.B.d.j.f.f.g.z.z.b.z.f.f.z.f.g.z.f.",
"z.z.f.z.f.f.b.z.z.b.f.j.i.>.,.:.<.:.:.:.:.,.:.;.>.;.,.>.>.:.>.;.;.>.:.:.;.1.I X , o ( {./.`./.B.f.f.f.f.f.f.g.f.g.f.f.f.z.f.g.s.",
"f.f.f.f.f.f.f.f.f.f.f.h.y.>.,.,.:.;.:.;.;.,.;.>.;.,.;.>.:.;.;.;.;.>.;.;.,.4.I . 1   ( [././.`.B.s.h.j.f.f.f.f.f.f.f.f.f.f.f.f.s.",
"j.n.n.n.m.j.j.n.j.n.j.j.z.>.1.>.1.1.1.<.>.1.>.1.>.1.>.>.1.1.>.1.>.1.>.1.>.9.I . ,   ( {.`.[.[.B.y.s.d.f.g.z.z.f.n.n.n.n.j.n.n.h.",
"o.o.o.o.o.o.o.o.o.o.o.o.#.{ { [ Y [ [ [ { [ [ [ { [ [ [ { [ { { { { } [ [ | A X , . Q J.F.G.G.K.L.K.L.c.7.8.q.>...o.o.o.o.o.o...",
"m n n F m m m m M m F b m G n D G F D n D D D F M n G F m n G G D n G D F M h = $ & s f.s.a.y.W.{.).{.Z.%.,.<.| m n M m n m n k ",
"G H H H G H G H G H L L G G G G G L G L G G L L G G H L H G G G H G G G G H z * > X B n.f.g.b.T./.).'.Z.&.:.1. .M G H G G G G n ",
"G G G G G G G G G G G G G L G G L G G G G G G G G G G G G G G H H G G G G H z * > . f j.f.f.f.Q.{.).}.S.;.:.1.@.G G G G G G H n ",
"G G G G G G G G G G G G G G G G G G G G G G G H G G D H G G G G G G G G F H l * > . B n.f.f.f.H.Y.I.Y.r.X.%.2./ M G G G G G G D ",
"G G G G G G G G G G G G G G G G G G G G G G G G H G G G G G G G D G F k v k e * > X B n.f.f.f.>.&.;.:.T n D H G G G G G G G G n ",
"G G G G G G G G G G G G H G G G G G G G G G G G G G G G H G G G G G m v v m e * > . B j.f.f.f.9.;.,.1.{ M H G G G G G H G H G D ",
"G G G L G G G G G G G G G G G G G G G G G G G G G G G H G G G G G G m v v m 5 : $ . V j.f.f.f.>.;.:.>.{ n G G G G G G G G G G D ",
"G G G G G G G G G G G G G G G G G G G G G G G G D G G G G G F G G G m v v m 5 * $ * f z.i.z.d.1.;.;.,.T G G G G G G G H G G G D ",
"G G G G G G G G G G G G G G G G G G G G G G G G G M m k v v m b v k v v v b t # > X d 1.>.>.>.K D H G G G G G G G G G G G G G D ",
"G G G G G G D G G G G G G G G G G G G G G G H G G G v k v b k v v v v v v m e : 1 * d >.,.;.,.J G D D D G D G G H G G D G H H M ",
"G G G G G G G G G G G G G G G G G G G G G G M G G M v v v v m v m v v v k m 5 X % . a 1.,.>.,.J G L G G G G G G G G G G G G D F ",
"G G G D H G G G G G D H G G G G G D G G H G D G D G C k k k C k k k k m v m e : 1 X d 1.<.<.<.Y D G H G G H G H G G G H G H H M ",
"3 , 7 7 7 3 7 3 7 7 7 7 3 3 7 7 7 7 7 7 3 7 3 7 , 7 , 7 3 7 7 7 7 7 7 7 , 7 , : > # , a 0 0 r 7 7 7 7 7 7 7 7 7 7 3 7 7 3 3 3 3 ",
"# # # ; : # # : : : ; : X : : : X : X # : : X : : # # * O # : # # # X : : : X $ $ # # X & ; . : : # # : : : # @ X : : : : * : . ",
"> > > > > > > > > > > > > > > > , O > > 1 > - > > > : > > > > > , > , > > , > 1 > > > , > > > > > , > > > > > > , $ $ > 1 > > O ",
". . . . . . . . . . @ . . . . . . * & & X # : $ - *           .   .   . . . &   . .   & . .   . . . .   .   . . . X & & . . .   ",
"S S S S S S S S S S S S S S S Z S S Z S Z q O # * u ' ` ' _ ) / / ) / / / / / / ) ) / / / / / / / / / / / / / / ) / S ) S S S R ",
"9.4.1.9.4.1.5.4.1.4.9.1.4.4.4.4.1.4.5.>.0.V . ,   ( |.{.}.'.N.n.m.N.n.m.m.k.k.m.m.m.m.m.m.m.m.m.j.m.m.m.n.m.k.m.N.k.m.m.4.1.7.1.",
";.;.;.;.;.;.;.;.;.;.;.;.;.;.;.;.;.;.,.,.1.V . ,   E './.^.E.z.z.d.s.d.d.d.t.f.d.d.d.d.d.d.d.f.d.f.d.d.d.f.d.d.d.d.d.z.t.,.;.;.;.",
"<.>.<.1.1.>.1.:.1.:.1.>.>.1.1.1.1.>.>.:.4.V X , . ( {.].]._.f.y.s.s.f.b.z.z.b.j.x.j.j.j.j.n.g.j.n.j.j.j.j.j.x.g.j.h.n.z.>.1.>.;.",
"%.%.o.%.o.%.%.%.%.%.%.%.%.o.%.o.%.%.$.%.-.V . , . Q W.U.U.U.D.V.V.D.c.u.u.t.e.8.q.q.q.q.q.q.q.q.q.q.q.8.q.q.q.q.q.q.q.8.%.%.%.o.",
"G G G G G D G G G G F G G G D G M M G G D r : > X s g.d.f.x.(.].'.{.C.O.:.:. .b G n F D F n M G D F F D G D D D D D F D F G G n ",
"G G G G G G G G G G G G G G G G G G G G G 0 : > . B j.f.s.x.Q.(./.[.Z.-.1.:. .M H G G G G H G G G G L G G G G H H H G G G G G D ",
"G G G G G G G G G G G G G G G G G G G G G r : : & B n.z.y.x./.(.`.{.Z.;.>.>.@.M L G G H G G H G G H G G G H G G G G G G G G G D ",
"G G G G G G G G G G G G G G G G G G G M H w # >   B n.z.f.b.!.^.E._.p.%.;.,.| M G G G G G G G G G G G G G G G G G G G H H G G n ",
"G G G G G G G G G G G G G G G G G m v v n 8 X >   B n.f.x.i.7.1.1.5.[ D H G G G H G G G G G G G G G G G H G G G G G G G G G G D ",
"G G G G G G G G G G G H H G G G G m k v k 8 * > * B n.y.f.d.>.;.,.1.{ m G G G G G G G G G G G G G G G G G G G G G G G G G G G D ",
"H G G G G G G G G G G G G G H H G v k m b 8 # > * s j.f.f.z.>.2.,.1.{ M H G G G G G G G G H H G G G G G G G G G L G G G G H G D ",
"G G G G G G G G G H G G G G G G G m k v b 8 # > & f m.f.h.z.>.1.<.6.{ n G G G G G G G G G G G G G G G G G G G G G G G G G G G D ",
"G G G G G G G G G b b m F m m m m v j k F 8 * > * d w.9.q.5.[ { { { K M G G G G G G G G G G G G G G G G G G G G G G G G G G G D ",
"G H G G G G G G D v v v v m v v v v v v b 8 * : X y 2.;.;.&.D M M F G G G G G G G G G G H G G G G G G G G G G G H G G G G G H D ",
"G G G G G G G G F k k k k v v j v k v v b w * 1 X a :.,.>.&.G G G G G G G G G G G G G G G G G G G G G G G G G G G G G G G G G F ",
"H H H H H H H L G m m v m b m m m v m b F w * % * d 9.1.5.1.L H L H G H L L H H H H H L H H H H H J H G H H H H H H G L H H J D ",
"z z z z z z z z h t e e t e e t e t e e t 7 # $ * q ~ ! I I z z z z z z x z x z z z z z z z z z N z z z z z z z z z z z z z z h ",
": # # # # # @ # # # X # # X # # X # # : X > $ # O : o * . . ; : : # # * * * : X : * : * : * : : X # # : : * : : : : : # ; @ # o ",
"> > 1 > > > > > 1 > > > > > 1 > 1 > > > > : > > > : > > > $ > > > > > > > > > > > > > > $ > $ > > > > > > > > $ 1 1 - $ 1 > > # ",
"@ : # : # . : : * : X : : ; # : X : : : : : # : X # ; : : # # # X : * : : X # * X : * : # # : # * : X * # # : : O $ : # X X X X ",
"9 9 9 9 9 9 9 9 9 9 9 9 9 9 9 9 9 9 9 9 9 9 9 9 9 q 9 9 9 9 < < < 9 < , 9 < 7 9 9 7 7 < 7 < < < < 7 9 9 7 < 7 > * $ : - i p p q ",
"l.l.l.l.l.l.l.l.l.l.z.l.l.l.l.l.l.l.l.l.l.l.l.l.d.d.l.i.l.i.;.&.&.&.&.;.&.*.&.&.&.&.&.&.&.&.&.*.&.&.&.&.*.*.>.! X > X u R.^.^.~.",
"f.f.j.f.x.f.h.f.g.x.f.f.n.f.f.f.z.f.f.x.x.x.f.f.f.h.f.h.f.f.>.<.:.:.:.:.,.:.:.,.>.,.<.;.1.;.>.,.:.<.:.:.2.>.3.I ; > X p ^.'.(.(.",
"f.f.f.f.f.z.z.f.z.f.f.f.f.f.f.f.f.f.f.f.f.f.f.f.f.f.f.z.f.z.<.;.<.:.,.<.<.,.,.,.,.,.,.,.,.,.,.,.<.;.,.<.,.;.3.U . > X i ~.].`.(.",
"f.z.d.f.f.f.g.f.f.f.g.g.z.f.f.x.g.f.g.f.g.g.f.g.f.f.f.f.h.i.>.:.:.:.:.:.:.:.:.:.:.:.:.:.>.;.<.:.:.:.:.:.,.,.4.I . > X p !.'.).(.",
"E.W.E.Q.S.:.5.9.%.Y { [ T Y Y Y Y [ Y Y Y Y T Y Y ] ] [ [ { K K P K K P K K K K K K K K K K K K P P K K K H ] N @ , X u A.B.B.M.",
"'.'.'.{.Z.O.>.:.| b M M M M G M G G F F G M G M M G M M G F G D G G n G F G G G D G D G D G M G G G D D F M H z X $ X 9 d.s.f.s.",
"_./.).[.Z.%.,.1.#.n H G H G G G G H G G G G G G G L G G G G G G G G G G G G G G G G G G G G G G G G G G G G L z * > = 9 f.f.f.f.",
"[.[.'.}.A.;.<.5.#.M G G G G G G G G G G G G G G G G G G G G G G G G G G G G G G G G G G G G G G G G G G G G H z * > * 9 d.g.f.f.",
"Z.Z.Z.S.*.T { { K M G G G G G G G G G G G G G H G G G G G G G L G G G G H G G G G G G G G G G G G G G F D m D 5 * : X 9 f.g.f.s.",
";.O.&.;.K n G n G G G G H G G G G G G G G G G G G G G G G G G G G G G G G G G G G G G G G G G G G G G m k v m 5 : > * 9 t.j.z.s.",
":.<.<.1.} M G H G G G G G G G G L G G G G G G L G G G G G G G G G G G G G G G G G G G H G G G G G G H m v v m 5 * $ * 9 t.z.f.f.",
">.1.2.4.} m G G G G G G G G G G G G G G G G G G G G G G G L G G G G G G G G G G G G G G G G G G G G G m k v m 5 * > * 9 f.n.z.f.",
"$.$.$.%.T G G G G G L G G G G G G G G G G G G G L G G G G G G G G G G G G G G G G G G G G M G M G G F m k v m t * > X 9 e.i.t.e.",
"M G M G G G G G G G G G G G G G G G G G G G G G L G G G G G G G G G G G G G G G G G D k k k k b v k k k v v m 5 * > : 7 ;.+.;.+.",
"G G G G G G G G G G G G G G L G G G G G G G G G G G G G G G G G G G G G G G G G G G G v v v v v v v v v v v m e ; > X 9 ;.<.<.;.",
"H H G H H G H G G G L G L L G L G H G H H G H L G L H G H H H H H H H H L L H L G H M m m v m v m b v v v k n e @ > = 9 ,.<.<.2.",
"F F F F F F F F F F F F C F F C F F F F F F F F F C F F C F F F F F F C C F C C F F C j j j j j j j c c c v v w # : X 3 =.*.%.$.",
"= > O O > = % > % > O > $ > $ , > $ = = O > $ > > > % > > = $ = > > O > > > > % > , > = = > = > > > > - = $ % > * > : : > > , O ",
"O : X > > X * = * * $ * # : # # * # O $ O # = X # : X > > X O : X > X # : # : > : X = O > O $ # : # $ O $ : # * = > > O * : : X ",
"> > > > > > > > > > > > > > > > > > > > > > > > > > > > $ > > > > > > > > > > > $ > > > > > > 1 > > > > > 1 > > 1 > > > > $ > X ",
"X X X X X o X X o X X o X o X X X o X X o X X X o X X X X o X X X X X X o X o X X X   X X o o X o X X o o X o X X o X o X X X X "
};
