/* XPM */
static char *Wall_2[] = {
/* columns rows colors chars-per-pixel */
"64 64 91 1 ",
"  c #0F0506",
". c #0E0905",
"X c #140505",
"o c #160907",
"O c #1B0906",
"+ c #16070A",
"@ c #160A0A",
"# c #1A0C0B",
"$ c #1F1010",
"% c #260E0C",
"& c #26100C",
"* c #28110C",
"= c #38190F",
"- c #261110",
"; c #321310",
": c #301B19",
"> c #3F2824",
", c #451D13",
"< c #4B1D13",
"1 c #511F16",
"2 c #472013",
"3 c #4F2012",
"4 c #49281F",
"5 c #532315",
"6 c #5E2614",
"7 c #572218",
"8 c #622616",
"9 c #622816",
"0 c #652618",
"q c #63291A",
"w c #7A311C",
"e c #442A25",
"r c #4F362D",
"t c #52332C",
"y c #553731",
"u c #583A32",
"i c #652D20",
"p c #6C3A2D",
"a c #67443B",
"s c #69433D",
"d c #70473F",
"f c #6F4A44",
"g c #734C43",
"h c #784D46",
"j c #774F4A",
"k c #84361A",
"l c #8C351F",
"z c #89381E",
"x c #A64224",
"c c #A74129",
"v c #BF4A27",
"b c #BE4A2A",
"n c #C44A1F",
"m c #C74D26",
"M c #C84E27",
"N c #C54D28",
"B c #C94E28",
"V c #C65025",
"C c #C95026",
"Z c #C9522C",
"A c #C55331",
"S c #CA5332",
"D c #CF5D3C",
"F c #D05D3C",
"G c #8D5A47",
"H c #8D6259",
"J c #926356",
"K c #AE7864",
"L c #A77568",
"P c #AE7769",
"I c #AE7869",
"U c #B07868",
"Y c #D5755A",
"T c #DB765A",
"R c #DF7A5C",
"E c #EE9477",
"W c #E59278",
"Q c #EC957D",
"! c #F0987D",
"~ c #F29F86",
"^ c #F49F88",
"/ c #ECA48F",
"( c #F1A187",
") c #F4A48C",
"_ c #E7A491",
"` c #EAA791",
"' c #F5A792",
"] c #F9A792",
"[ c #F5A993",
"{ c #F8AB94",
"} c #F8AC99",
/* pixels */
"'''''''[''''''''''')[[''''''''')[[[]''fXoXg['')['[)['''[)[)[['[)",
"[['[[[''''''{'{'[[[''['[']{'[[[[[[[)'[do##h''['[[[[[[[['[['[['{)",
"']['']]]][]'']''''''[']'']''']]]'']'[[f@#oj[']]'']''']]{']''''['",
"((((((((((((((((((((((((((((((((((((((so@@g(((((((((((~(((((((^~",
"FFFFFFFFFFFFFFFFDDDDDDDDFFFFFFFFFFDDDDio#@iDDDDDFFFFFFFFFFFFFFFD",
"mmBmmmmmmmmmmmmmNMMMMMMMmmmmBmmBmmmmmM6o#@9MmmmMmmmBmmmmmmmmmmmn",
"mmmmmmBmBmmBBmmmMMMMMMNVmmmmmmBmMMNMNM6@#@0mmmMMmmBmBBmmBmmmMMmm",
"mBBBBBBBBBCmBCmCMMMMMMBBCmCBBBBmMMMNMM6+##0mmmMMmBBmBmBBBBmmMMMm",
"MMMMMBMMmBBmCBmBBMMBNBBMNBBMVMNBMMNMMM8+#+9BmmMMMMBCmBmBmBBmBMmn",
"BMMMMMBMBmmBmBCmMMBMMVMMBMMMMBBMMMMMMM8+#+8MmMMMMMBmCmBmBmmBmBmM",
"MBMMBMMMBmBmBmBmMMMMMMMMVMMMMMBMMMNmMM8@#@8BmMMMMMmBBBBBBmBmBmmM",
"MMMVNBMMmBmBmBmBMMMMMMMMMMMMMMMBMMMMmm6+#@6BMMMMMMBmBmCmmBmBmmmn",
"BMMMMMMMMMMMCBmBMMBMBMMMMMMMMMMMMMmBmB8+@@qMMMMMMBMMCBBBmBBBBmmm",
"VMVNBMVMMMMMBmCmMMBVBMMMMMVNMMMMNMBBmB6O#@qBNMMCVMMMmmmmCmmmmBCn",
"MMMMMMMMMMMMMMBBMMMMNMMMMMMMMMMBMmBBBm8o##0CNMMmMMMMmBBmmmBmmmCn",
"CCVBCVBCBVCCCCCCCVBCCVCCCCVBCCCCmBmmBB8+#@8VmmmCCCCVCCCCCCBBBBBB",
"xxxxxxcxxxcxcxxxxxxxxxxxxxxxxxxxxxxxcc5@##7cxxxxxxxxxxxxxxxxxcxx",
"&&&&&&&&&%&&&&&%&&&%&&-&&&&&*&&&&&&%&&#####%%&%&&&&&&&&&&&%%&%&%",
"@@@@#@#@@@###@@#@@o#@@#@##@@#@@@#@@@##@####@@@@@#@@@@@@@#@@##@@X",
"#############################################################@@X",
"#$###$####$##$###$##&@@#@#&#$#$###%###-$##-##%$#$##$#%#%#$#$$$$@",
"IUUIPIIUIIUIIUUIIUUKL>##@uIIPPUPIIIIUUIIUIIIPPPPPPIUIIIIKIIKKKII",
"{{{{{{}{{{{{{{{{{}{{`t@#oh{{{{{{{{{{{{{{{{{{{{{{[{{{}{{{{{{{{{}[",
"{[]'[']']''][[]''[[[/t##Xj''{''[['[['']''['[']''[['''''''{''''{)",
"[[[[][[[[[[[][[[[{{[/ro#og}[{][[[[][[[[[][[[}[][}[['[[[[[[][[[}[",
"RRRRRRRRRRRRRRRRRRRRY4o@opRTRRRRRRRRRRRRRRRRRRRRTRRRRRRRRRRRRRRT",
"mmNmmMmmmmNMmMmmmmmmv,@#@9MNmmmmmmmmmmNMmmmmmmmmmmmmNmmmmmmmmmmm",
"mMMMBmmBmBNBmBBmmmmmN,@#@9MMmmmBmBmmmMMBmmmBNMmmMMMMMMBMmBmmmmmm",
"mMBmBmBmmmmBmBmBmmmBm,@#@0CBmBmBMMMMMMMMBmBmMMMMMMMMMMBBMMMMmmmm",
"MMmBmBmBBMBmBmBmMMmBN,@Oo0CBBmmBMMMMMMMMmBmBMMMMMMMMMMMMMMMMmmmn",
"MMBmBmBmmBmBmBmBMMBmv,@#o0mmmmBmMMMMMMBMBmBMMNMMMMMMMMMMMMMMmmmm",
"MBmBmBmBBmBmBmBmMMBmv,@#@0mmBmmBMMMMMBmBmBNMBBMMMMMMMMMMMMMMmmmn",
"MMMMMMMMMMMMMMMMBmBmv,@#@0MMMMMMMMMMMBNBMMMMMMMMMBNBMMMBMMMMMMBm",
"MMMVMMMMMMVMMMMMmBMmv,@#@8VMMNMMMMMMMMNBMMMMMMMMBMVMMMMMMBMMBNmm",
"MMMMMMMMMMMMMMMMBmVBV,@#@0MMMMMMMMMMMMBBMMMMMMMMMMMMVMMMBMMMMmNn",
"NMMMMMMMMMMNMMMMMCMBv,@##0MNMNMMMMMMMVBNMMMMNVMMMNMMNBNMNVMMMmVv",
"MMMMmmmmMMMMMmmmMNNMN,@#o9mmMMMMmmmMMMMMMMmmmmmMMMMMMMMMmmMMmmMN",
"NNNNNNMNNNNNNNMNMMNNv,o@@0MMNMNNMNMMNNNNNMNNMNNMNNNMNNNNMNNNNmmv",
"3233<5333323<53333331%##@;5<533<33<33323333<33<523333333333333<3",
"@@oo@@@@@@@@@@@@@@@@o#####@@@@@@@@@@@@@@@@@@@o@+@@@@ooo@oo@@@Oo.",
"#######################@+#######@#################@######@#####@",
"o@oo@ooooo+oo+ooo+ooooo@++++oooooooo@ooo@oooo+@o@oo@++o###@@@@o ",
"aaaaaaaasaaaaaaaaaaaaaaassssaaaaaaaaaaaaaaaaaaaaaaaaaase##@:ufaa",
"''`''`''`'''''`''`'''`'''`'/'`'''`'''`'''`'''`''`'''`)[H##oy``'_",
"'[[[[[['[['[[[[[''[[[['[''']''])['[[[[['''[['[[[['''['{J@##y`]''",
"[{[[[[[[{[[[[[{[[{[[[[[[]]]]']]^[[[[[[[{[[{[[[{[{[[{[]}Jo@oy`][]",
"QQQQQQQQQQQQQQQQQQQQQQQQ~WW~~~~~QQQQQQQQQQQQQQQQQQQQQQ!Go#@tW~QE",
"ZZZZZZZZZZZZZZZZZZZZZZZZNSMSNbBBZZZZZZZZZZZZZZZZZZZZZSSw##@,NAAM",
"BMMMNMBBmMmMMmmmBMMBBBMMMMnMBBvmmmmMMmMMMMMMBBBmMMMBMnBw+#@<mmmn",
"mmmBmmmmmmMmMMmmmmmmmmMMMMmmmBMmBmmMMmmmnMMmmmmMmmmBMMBk+#+<vmmn",
"mmBmMMMMMMMMBmBmmmmBmBBmmMmBMMMMmBMMMMmBBBmmmmmBmBmBMMBwO##<mMmn",
"BBmBMMMMMMMMmBmBBmBBBmmBBMMMMMMMBmmMMMmBMBBmBBBBBmBmMMBw##o<mMmm",
"mMMNMMMMBmBmmmBMmCmCmCMMMMMBmBMMmmmBBmBmMMMMMMMmmBMMNmBwO#+<vmmn",
"MMMMMMMMmBmMBmMMCmBmmMMMMMMMMmMMmBBmBMmBMMMMMMmmBmMMmmBw##@<mmmn",
"MMMMMBNBBmBMMMMMmBmBCmMMMBMMMMMMMMMBMMMMMMMMMMMMmMMMMMBw+#+<mmmm",
"MMMMMMBMMMMMMMMBBmCmBBMMMMMMMMMMMMMMMMMMMMMMBMMMMMMMMmBw#+X,mmmm",
"MMMMMMmBMMMMMMMMMMMMMMMMMMMMBmmmMBMBMMMBMMMMMMBMMmBCCCCw#+#,mmmm",
"MMMMBBBBBBMMMMMMBCMBBMMMMMMMBBBmBmMMMMMMMCMCCMCMBBMBCCCw###,Nmmn",
"MCMCMCCCMMMMBBBBCCVVMMCCMCCMMCCCMBBMMMMMCCVVCCCCMMCCCCZw+##,mMBB",
"llllllzzllllllllzzzzlllllllllllzllllllllzzzzllllllllzzz5##+=lllk",
"%oO####O####%%X#########%oO##o$$#O##%OO%########%O#O####$##@O##O",
"OO#######O##OX##########OO####oO####OO++#######@Oo######@#@@###X",
"###O#@#@O##@###+#####O#@###O@#@###@@#####@######@####@##@######X",
"#@#$@@$################@#@#$######$####+#################@@$#@@o"
};
