/* XPM */
static char *Wall_4[] = {
/* columns rows colors chars-per-pixel */
"64 64 145 2 ",
"   c #140707",
".  c #180607",
"X  c #150907",
"o  c #1A0B07",
"O  c #150708",
"+  c #160A09",
"@  c #1A0B0B",
"#  c #1E100D",
"$  c #1F0F10",
"%  c #1E1010",
"&  c #220E0C",
"*  c #2E0F0A",
"=  c #27110B",
"-  c #2B110C",
";  c #251413",
":  c #2A1816",
">  c #3D1A12",
",  c #341D1B",
"<  c #3D1F18",
"1  c #3F2421",
"2  c #421A12",
"3  c #4A1D12",
"4  c #41231F",
"5  c #562316",
"6  c #5B2316",
"7  c #652A17",
"8  c #6A2B17",
"9  c #6B2B19",
"0  c #712F1C",
"q  c #7B2F1A",
"w  c #7A311B",
"e  c #402721",
"r  c #412824",
"t  c #502F2B",
"y  c #4E3129",
"u  c #53332C",
"i  c #58372E",
"p  c #55382F",
"a  c #563630",
"s  c #5D3732",
"d  c #5D3B32",
"f  c #6D3525",
"g  c #6A352A",
"h  c #7D3C2A",
"j  c #623831",
"k  c #69453D",
"l  c #78493C",
"z  c #7B5347",
"x  c #775148",
"c  c #7A524A",
"v  c #87361C",
"b  c #88361D",
"n  c #87391C",
"m  c #8F391E",
"M  c #973B1F",
"N  c #9B3F1F",
"B  c #863520",
"V  c #8A3621",
"C  c #873820",
"Z  c #8F3B22",
"A  c #823C29",
"S  c #963B21",
"D  c #9A3C21",
"F  c #943C2B",
"G  c #A13C24",
"H  c #9C401F",
"J  c #82412E",
"K  c #9C4021",
"L  c #844536",
"P  c #A44122",
"I  c #AA4325",
"U  c #A4482C",
"Y  c #AF4A28",
"T  c #B24525",
"R  c #B14924",
"E  c #BE4B26",
"W  c #BB4C2C",
"Q  c #C54A1F",
"!  c #C74E26",
"~  c #C84E27",
"^  c #C64E28",
"/  c #CA4E29",
"(  c #C65026",
")  c #CB5026",
"_  c #C7512A",
"`  c #CA512A",
"'  c #CB5530",
"]  c #CD5934",
"[  c #CF5D3A",
"{  c #D15F3C",
"}  c #CE613E",
"|  c #D1613E",
" . c #81564D",
".. c #946357",
"X. c #9F6453",
"o. c #B9644A",
"O. c #A36C5F",
"+. c #A27063",
"@. c #AA7664",
"#. c #B57D6D",
"$. c #B97D6E",
"%. c #BA7E71",
"&. c #D46544",
"*. c #D26846",
"=. c #D46B4B",
"-. c #D86E4D",
";. c #CB6F54",
":. c #DB7554",
">. c #DD7857",
",. c #D77658",
"<. c #DE7659",
"1. c #DD795A",
"2. c #C07765",
"3. c #DF7F63",
"4. c #E17F62",
"5. c #D4816B",
"6. c #CD8C7C",
"7. c #D28F7D",
"8. c #E4876A",
"9. c #E78E74",
"0. c #E98C71",
"q. c #EC937A",
"w. c #F1957C",
"e. c #D29384",
"r. c #D99581",
"t. c #D89883",
"y. c #E29A87",
"u. c #EB9E87",
"i. c #E59C89",
"p. c #EB9E8A",
"a. c #F09C84",
"s. c #E7A18E",
"d. c #ECA38E",
"f. c #F2A087",
"g. c #F2A38C",
"h. c #F8A78F",
"j. c #F5A88F",
"k. c #FAA88D",
"l. c #EDA491",
"z. c #F5A792",
"x. c #F8A792",
"c. c #F6A892",
"v. c #F9AA93",
"b. c #F5AB98",
"n. c #FAAC99",
/* pixels */
"X X X . + @   @ X . . + + @ . + X + . @ X + + + . + + + @ . + + . . o + + + 1 i.v.h.h.h.c.g.z.c.h.z.c.h.c.z.c.c.h.z.z.x.z.c.z.x.",
"@ @ @ @ @ @ @ @ @ @ @ @ @ @ @ @ @ @ @ @ @ @ @ @ @ @ @ @ @ @ @ @ @ @ @ @ @ o r s.c.c.c.z.x.x.c.z.c.c.x.c.x.v.c.z.c.c.c.z.z.x.x.c.",
"@ @ o o @ @ @ @ @ @ @ @ @ @ @ @ @ @ @ @ @ @ @ @ @ + @ @ @ @ @ @ @ @ # + @ X r i.h.c.c.c.c.j.c.h.z.c.c.c.c.z.x.v.c.h.z.c.c.b.c.k.",
": : : : = = = - = = = = = = = & = - & - - = & - = = = * = = = - = - & + @ + r p.c.c.j.f.d.g.f.g.g.g.a.d.g.a.g.a.g.g.g.a.s.y.y.i.",
"6.6.6.6.o.I I I I I I I I I I I I I I I I I I I I I I I I I I I I I 0 . @ @ r i.x.c.g.=.[ ] { [ [ [ ] { { [ { ] [ { { [ J 4 1 4 ",
"c.c.c.v.:.( / / / / ~ ~ / / / / / ~ / / / / / ~ ~ ~ ~ ~ / / ~ ~ ( / v @ @ + r i.x.z.d.| ! ! ! ! ! ! ! ~ ! ! ! ! ! ~ ! / 8 X + + ",
"c.c.c.c.:.! ( ~ ~ ~ ( ^ ! _ ~ ! ^ ( _ ( ~ ~ ^ ( ^ ^ ! ! ~ ! ( ~ ~ ) v @ @ @ r i.x.c.g.{ ! ! ~ ~ ~ ~ ~ ~ ! ! ! ~ ~ ! ( / 9 + o @ ",
"c.c.j.c.:.( ( ~ ~ ~ ! _ ! ! ! ! ( ! ! ! ( ! ( ^ ~ ^ _ ! ~ ( ~ ^ ~ / v + @ + r u.z.h.g.{ ! ~ ~ ~ ~ ~ ~ ~ ! ~ / / ~ ~ ! _ 9 + o # ",
"c.z.h.v.:.! ! ! ~ ~ ~ ~ ! ~ ~ ! ^ ~ ~ ~ ! ~ ~ ~ ~ ^ ~ ~ ~ ~ ~ ~ ( ) v @ + @ r i.z.z.g.| ! ~ ~ ~ ^ ~ ~ ~ ~ ~ ~ ~ ~ ~ ~ / 9 @ o @ ",
"c.c.z.z.:.! / / ~ ~ ~ ~ ~ ~ ~ ~ ~ ~ ~ ~ ~ ~ ~ ^ ~ ~ ~ ~ ~ ~ ~ ^ / / v @ @ @ r i.c.z.g.| ! ~ ~ ~ ~ ~ ~ ~ ~ ~ ~ ~ ~ ~ ~ / 9 + @ @ ",
"c.v.z.z.:.! ~ ! ~ ~ ~ ~ ~ ~ ~ ~ ~ ~ ~ _ ~ ~ ~ ~ ~ ~ ~ ~ ~ ~ ~ ~ / ) v o @ + r u.x.x.g.| ! ~ ~ ~ ~ ~ ~ ~ ~ ~ ~ ~ ~ ! ~ / 9 + @ @ ",
"c.z.h.h.:.! ~ ! ~ ~ ~ ~ ~ ~ ~ ~ ~ ~ ~ ~ ~ ~ ~ ~ ~ ~ ~ ~ ~ ^ ~ ~ / / v o @ + r i.c.z.g.{ ! ~ ~ ~ ~ ~ ~ ~ ~ ~ _ ~ ~ ~ ~ ~ 9 @ @ @ ",
"c.z.c.c.:.! ! ~ ~ _ ~ ~ ~ ~ ! ~ ~ ~ ~ ~ ~ ~ ~ ~ ~ ~ ~ ~ ~ ~ ~ _ / / v o @ . r i.c.c.d.{ ! ~ ~ ! ~ ~ ~ ~ ~ ~ ^ ~ ~ ~ ~ / 9 + o @ ",
"c.v.c.c.:.! ~ ! ~ ~ ~ ~ ~ ~ ~ ~ ~ ~ ~ ~ ~ ~ ~ ~ ~ ~ _ ^ ~ ~ ~ ^ ~ / v o @ @ r u.c.c.z.[ ! ~ ~ ~ ~ ~ _ ~ ~ ~ ~ ~ ~ ~ ~ ` 9 + @ @ ",
"c.v.c.c.:.! ~ ~ ~ ~ ~ ~ ~ ~ ~ ~ ~ ~ ~ ^ ~ ~ ~ ~ ~ ~ ~ ~ ~ ~ ~ ^ ~ ) b & @ + r i.x.c.d.[ ! ~ ~ ~ ~ ~ ~ ~ ~ ~ ~ ~ ~ ~ ~ ~ 9 + @ & ",
"c.z.c.c.:.! ~ ~ ! ~ ^ ~ ~ ~ ~ ~ ~ ~ ~ ~ ~ ~ ~ ~ ~ ~ ~ ~ ~ ~ ~ ~ ~ ) b o @ . r i.c.c.g.&.! ~ ~ ~ ~ ~ ~ ~ ~ ~ ~ ~ ~ ~ ^ / 9 @ @ @ ",
"c.z.c.c.:.! ! ~ ~ ~ ~ ~ ~ ~ ~ ~ ~ ~ ~ ~ ~ ~ ~ ~ ~ ~ ~ ~ ~ ~ ~ ^ ~ / v . o o r i.v.z.g.| ! ~ ~ ~ ~ ~ ~ ~ ~ ~ ~ ~ ~ ^ ~ / 9 + @ @ ",
"c.v.c.c.:.! ~ ~ ! ~ ~ ~ ^ ~ ~ ~ ~ ~ ~ ~ ~ ~ ~ ~ ~ ~ ~ ~ ~ ~ ~ _ ~ _ v @ @ . r i.x.z.g.{ ! ~ ~ ~ ~ ~ ~ ^ ~ ~ ~ ~ ~ _ ~ ` 9 @ @ @ ",
"c.x.c.c.:.! ~ ~ ~ ~ ~ ~ ~ ~ ~ ~ ^ ~ _ ~ ~ ~ ~ ~ ^ ~ ~ ~ ~ ^ ~ ^ / / v @ @ + e s.z.h.g.| ! ! ~ ~ ~ ~ ~ ~ ~ ~ ~ ~ ~ ~ ~ ~ 9 + @ @ ",
"c.z.c.c.:.! ~ ~ ! ~ ~ ~ ~ ~ ~ ~ ~ ~ ~ ~ ~ ~ ~ ~ ~ ~ ~ ~ ~ ~ ~ / ~ / v @ $ + r i.c.x.f.[ ! / ~ ~ ~ ~ ~ ~ ~ ~ ~ ~ ~ ~ ~ ~ 9 + @ & ",
"c.x.c.j.:.! ! ! ~ ~ ~ ~ ~ ^ ~ ~ ~ ~ ~ ~ ^ ~ ~ ~ ~ ~ ~ ~ ~ ~ ~ ~ ~ ) b & @ @ r y.z.g.d.| ! ~ ~ ~ ~ ~ ~ ~ ~ ~ ~ ~ ~ ~ ~ / 8 + @ @ ",
"c.c.c.c.:.! ! ~ ! ~ ~ ~ ~ ~ ~ ~ ~ ~ ~ ~ ~ ~ ~ ~ ~ ~ ~ ~ ^ ~ ~ ~ ~ ) v o @ @ ; u a a j Y / ~ ~ ~ ~ ~ ~ ~ ~ ~ ~ ~ ~ ~ ~ ~ 8 + @ @ ",
"c.c.z.x.:.! ~ ~ ~ ~ ~ ~ ~ ~ ~ ~ ~ ~ ( ~ ~ ~ ~ ~ ~ ~ / ~ ! ~ ! ^ / / b @ + o + @ + + & G / ~ ~ ~ ~ ~ ~ ~ ~ ~ ~ ~ ~ ~ ~ _ 9 + @ @ ",
"c.v.z.h.:.! ~ ! ~ ~ ~ ~ ~ _ ~ ~ ~ ~ ^ ~ ~ ~ ~ ~ ~ ~ ~ ~ ~ / ! ! / / b o o # + o + o & P ( ~ ~ ~ ^ ^ ~ _ ^ ~ ! ^ ~ ~ ~ ~ 9 + & @ ",
"c.x.c.c.:.! ! ~ ! ~ ~ ~ ~ ~ ~ ~ ~ ~ ~ ~ ~ ~ ~ ~ ~ ~ ^ ~ ^ ! ! / / ) v O + + @ @ + @ & P ) ) / / / ~ / / / / ) ( / / / ) 0 X @ @ ",
"c.c.c.c.:.! ~ ~ ~ ~ ~ ~ ~ ^ ~ ~ ~ ~ ~ ~ ~ ~ ~ ~ ~ ~ ~ ^ ^ ^ S V V b h k k j s $ $ o @ 0 V v v V v m v C m n m n V v v C 5 X o @ ",
"c.z.c.c.:.! ~ ~ ~ ~ ~ ~ ~ ~ ~ ~ ~ _ ~ ~ ~ ~ ~ ^ ~ ~ ~ ~ / ^ 3 @ & + k z.z.c.e.; @ + # o @ @ @ @ @ o @ @ @ . + o @ @ @ @ @ @ o @ ",
"c.c.c.c.:.! ~ ~ ! ~ ~ ~ ~ ~ ~ ~ ~ ~ ~ ~ ~ _ ~ ~ ~ ~ ~ ! ^ ^ 3 + @ . k z.z.x.6.; @ @ @ o @ @ @ @ @ @ @ @ @ @ # + @ @ @ o $ @ o $ ",
"c.v.c.j.:.! ~ ~ ~ ~ ! ~ ~ ~ ~ ~ ~ ~ ~ ~ ^ ~ ~ ~ ~ ~ ~ ! ! ^ 3 + @ + x c.x.v.6.; + + + + X # o + @ + + + + o + # X + @ + + @ @ @ ",
"c.z.c.c.:.! ~ ~ ~ ~ ~ ~ ~ ~ ~ ~ ~ ~ ~ ~ ~ ~ ~ ~ ~ ~ ~ ^ ! ^ 3 @ @ + d c.z.c.7.u e e e e e 1 1 1 r 4 e 4 4 r 1 1 r 1 r r : @ @ @ ",
"x.x.b.c.:.! ! ! ! ~ ~ ~ ~ ~ ~ ! ~ ~ ~ ~ ~ ~ ~ ~ ~ ~ ~ ! ! E 3 + @ + d l.x.x.g.y.s.y.y.s.s.t.y.y.s.y.s.y.y.y.i.y.i.y.i.i.x @ @ @ ",
"x.x.c.c.:.! ! ! ~ ~ ~ ~ ~ ~ ~ ~ ~ ~ ~ ~ ~ ~ ~ ~ ~ ~ ~ ~ ! ^ 3 . @ + x c.x.x.c.c.j.c.j.j.c.c.c.j.j.c.c.j.c.c.c.c.c.c.c.x. .@ @ @ ",
"c.c.c.c.:.! ! / ~ ~ ~ ~ ~ ~ ~ ~ ~ ~ ~ ~ ! ! / ! ~ ~ ~ ! ! ^ 3 + @ + d l.b.c.c.c.x.c.c.x.x.x.x.x.c.x.c.c.v.x.z.x.x.x.z.c.c + o @ ",
"c.z.c.k.:.! / ! ~ ~ ~ ~ ~ ~ ~ ~ ~ ~ ~ ~ / / ! / ~ ~ ~ ! ! ^ 3 + + + x c.c.c.c.g.g.g.g.g.g.g.g.g.g.g.z.g.g.g.g.g.d.z.g.g.z + @ @ ",
"c.x.c.c.:.! ! / ~ ~ ~ ~ ~ ~ ~ ~ ~ ~ ~ ~ ! ! / ! ~ ~ ! ! ! ^ 3 + + + k l.b.x.a.*.{ | | | &.| | | &.{ } | { | | | | &.[ &.f @ @ @ ",
"c.c.x.x.-.! ! / ~ ! ~ ~ ~ ~ ~ ~ ~ ~ ~ ~ ~ ~ / ! ! / ! ! ! ^ 2 + + @ k c.c.c.w.` ~ ! ^ ! ! ! ! ! ! ! ! ! ! ^ ! ^ ! ! ! ~ 9 @ @ @ ",
"c.c.c.z.:.! ! / ! ! ~ ~ ~ ~ ~ ~ ~ ^ ~ ~ / ! ! ^ ! / ! / ^ ! 3 + @ O k z.c.x.q.' ~ ~ ~ ~ _ ~ ~ ~ ! ! ~ ~ ~ ~ ~ ~ ~ ~ / ) 9 + @ @ ",
"b.v.v.n.,.! / / ~ ~ ! ~ ~ ~ ~ ~ ~ ~ ~ ~ ! ! ! / ! ~ ! / ~ ^ 3       k c.c.b.u.' ~ ~ ~ ~ ~ ~ ~ ~ / ! ~ ~ ~ ~ ~ ~ ~ ~ ~ / 9 + @ @ ",
"........L q q w D ^ ! ~ ~ ~ ~ ~ ~ ~ ~ ~ ! / ! / / ^ B q w w l x x x X.3.4.4.<.) ~ ~ ~ ~ ~ ~ ~ ~ ! ~ ~ ~ ^ ~ ~ ~ ~ ~ ~ / 9 + @ @ ",
"+ X @ X @ + @ + 5 ^ ~ ~ ~ ~ ~ ~ ~ ~ ~ ~ / ! / ! / T * . + $ #.n.c.b.8.! ! ~ ~ ~ ~ ~ ~ ~ ~ ~ ~ ~ ~ ! ~ ~ ~ ~ ~ ~ ~ ~ ~ ~ 9 @ @ @ ",
"o @ @ @ @ + o + 6 ^ ~ ~ ~ ~ / / ~ ~ / / ! / ! ~ ~ T - o @ % #.x.c.b.8.( ~ ~ ~ ~ ~ ~ ~ ~ ~ ~ ~ ~ ~ ~ ~ ~ ~ ~ ~ ~ ~ ~ ~ / 9 + @ @ ",
"+ + . + + + + + 5 ^ ~ ) / / / ) / / / ) / / / ) / R * X + % $.n.c.b.8.~ ~ ~ ~ ~ ~ ~ ~ ~ ~ ~ ~ ~ ~ ^ ~ ~ ~ ~ ^ ~ ~ ~ ~ / 9 + @ @ ",
"y y t y y y y y g K K K D D H H D N N N N N G N G F u u y a 2.q.q.q.>.~ ~ ~ ~ ~ ~ ~ ! _ ~ ~ ( ^ ~ ~ ~ ~ ~ ~ ~ ~ ~ ^ ~ ) 9 + @ & ",
"l.d.d.l.l.d.l.s.O.= & # & & & & & & & & & & & & o < e.d.l.p.*.~ ) _ ( / ! ~ ^ ~ ~ ~ ~ ~ ~ ~ ~ ~ ~ ~ ~ ~ ~ ~ ~ ~ ~ ~ ~ ~ 9 @ @ @ ",
"z.v.z.z.x.z.x.b.+.@ @ + + + + @ + # @ @ . . @ . + , r.v.x.h.&.Q ~ ~ ^ ^ ! ~ ~ ~ ~ ~ ~ ~ ^ ~ ~ ~ _ ~ ~ ~ ~ ~ ~ ~ ~ ~ ~ / 9 + @ @ ",
"j.j.z.h.c.c.j.b.+.o @ @ + # + + + + @ o o o o @ @ , t.v.z.z.&.! ~ ~ ~ ~ ~ ~ ~ ~ ~ ~ ~ ~ ~ ~ ~ ~ ~ ~ ~ ~ ~ _ ~ ~ ~ ~ ~ / 9 + @ @ ",
"z.h.z.z.h.z.g.v.@.& # % # = % # # = & @ ; @ = # % 1 e.z.g.d.&.! ! ! ~ ~ ~ ~ ! ~ ~ ~ ~ ~ ~ ~ ~ ~ ~ ~ ~ ~ ~ ~ ~ ~ ~ ~ ~ ~ 9 @ @ @ ",
"&.&.&.&.&.&.*.&.;.#.#.$.$.#.$.$.$.$.#.$.$.$.%.$.%.@.d u u i U ~ ~ ~ ~ ~ ~ ~ ~ ~ ~ ~ ~ ~ ~ ~ ~ ~ ~ ~ ~ ~ ~ ~ ~ ~ ~ ~ ~ ~ 9 @ @ @ ",
"! ! ! ! ! ! ! ! &.v.v.v.v.v.v.n.x.n.v.v.v.v.b.v.n.t., + + o S / ^ ~ ~ ~ ~ ~ ~ _ ~ ~ ~ ~ ~ ~ ~ ~ ~ ~ ^ ~ ~ ~ ~ ~ ~ _ ~ / 9 + @ @ ",
"~ ~ ! ! / ! ! ! -.x.z.x.v.z.h.x.x.x.c.c.c.k.b.l.v.7., o @ @ D ~ ~ ~ ~ ~ ~ ~ ~ ~ ~ ~ ~ ~ ~ ~ ~ ~ ~ ~ ~ ~ ~ ~ ~ ~ ~ ^ ~ / 9 + @ @ ",
"! / ! ! / ! ! / -.x.x.x.x.x.x.v.v.x.x.x.v.x.x.c.n.7., @ o $ M / ~ ~ ~ ~ ~ ~ ~ ~ ~ ~ ~ ~ ~ ~ ~ ~ ~ ~ ~ ~ ~ ~ ~ ^ ~ ^ ~ ) 9 + @ & ",
"! ! / ! ! / ! ! { <.1.1.1.1.1.1.1.1.1.<.1.9.x.c.v.7., @ o & M / ^ ~ ~ ^ ~ ~ ~ ~ ~ ~ ^ ~ ~ ~ ~ ^ ~ ~ ~ ~ ~ ~ ~ ~ ~ ~ ~ ~ 9 @ @ @ ",
"/ ! ~ ~ / ~ ~ ! ! ! ! ! ~ ! ! ! ! ! ! / ! :.x.z.v.7., o o # S ~ ~ ~ ~ ~ ~ ~ ~ ~ ~ ~ ~ ~ ~ ~ ~ ~ ~ ~ ~ ~ ~ ~ ~ ~ ~ ~ ~ / 9 + @ @ ",
"! / ~ ~ ! ~ ~ ~ ! / ! ~ ~ ~ ! ! ~ ~ ! ! ! ,.c.z.v.t., o o @ D / ^ ! ~ _ ~ ~ ~ ~ ~ ^ ~ ~ ~ ~ ~ ~ ~ ~ ~ ~ ~ ~ ~ ~ ~ ~ ~ / 9 + @ @ ",
"/ ~ ~ ~ ~ ~ ~ ~ ! ! ~ ~ ~ ~ ! ~ ~ ~ ! ~ Q :.x.z.v.t., X + $ S ) ~ / / ~ ~ ~ ~ ~ ~ ~ ~ ~ ~ ~ ~ ~ ~ ~ _ ~ ~ ~ ~ ~ ~ _ ~ ~ 9 @ @ @ ",
"~ ~ ~ ~ ~ ~ ~ ~ ! ! ~ ~ ~ ~ ~ ~ ~ ~ ~ ~ / &.0.0.0.5.k j d j A Z M M G ! ~ ~ ^ ~ ~ ~ ~ ~ ~ ~ ~ ~ ^ ~ ~ ~ ~ ~ ~ ~ ~ ~ ~ ~ 8 @ @ @ ",
"! / ! / ! ! ! ! ! ! ~ ~ ~ ~ ~ ~ ~ ~ / ! / ^ ! / ! [ p.g.j.s.u @ o . 6 / ~ ~ ~ ~ ~ ~ ~ ~ ~ ~ ~ ~ ~ ~ ~ ~ ~ ^ ~ ~ ~ ~ ~ ~ 9 + o @ ",
"! ! / ! / / ! ! / ! ~ ~ ~ ~ ~ ~ ! / ! ! / ^ ~ ! ~ ] u.v.c.d.p X @ + 6 ^ ~ ~ ~ ~ ~ ~ ~ ~ ~ ~ ~ ~ ~ ~ ~ ~ ~ ~ ~ ~ ~ ~ ~ ) 9 + @ $ ",
"/ ! ! / ! / ~ ~ ! / ~ ~ ~ ~ ~ ~ ~ ~ ~ ~ ! ^ ~ ~ ! ] u.v.c.l.a X @ $ 5 ^ ~ ! ~ ~ ~ ! ! ! ^ ~ ~ ~ ^ ~ ~ ~ ~ ~ ! ! ~ ^ ~ ~ 9 + @ @ ",
"! / ! / ! ! ~ ~ / ! ~ ~ ~ ~ ~ ~ ~ ~ ~ ~ / ! / ~ ! ] u.x.c.l.a   @ o 5 W E W E E E E E E E E E E E E E E E E E E E E E E 7 @ @ @ ",
"/ ~ ~ ~ ~ ~ ~ ~ ! ! ! / ~ ~ ~ ~ ~ ~ ~ ~ / ! / ! ! ] a.z.c.l.a X @ @ = > > > > > > > > > > > > > > > > > > > > > > > < > - @ o @ ",
"! / ~ ~ ~ ~ ! ~ / / ! ! ~ ~ ~ ~ ~ ~ ~ ~ ! ! / ! / ] a.z.z.l.a X + @ + + @ @ @ . @ @ + @ + + @ + @ . @ + + + + @ + @ . + @ @ o @ ",
"/ ! ! ! ~ ~ ! / / ! / ! ! ! ~ ~ / ~ ~ / / ! ! ! ~ [ a.x.z.d.a . o @ @ @ @ @ @ @ o @ @ @ @ @ @ @ @ @ @ @ @ @ o @ @ @ @ @ @ @ @ % ",
"Q Q Q Q Q Q ! Q Q Q Q Q Q Q Q ! Q Q Q Q Q Q Q ! Q ` a.z.z.l.a   + +   + + . .                           + O O O O . . . + . + + "
};
